/* XPM */
static char *output_onlinepngtools1704476286[] = {
/* columns rows colors chars-per-pixel */
"100 65 92 1 ",
"  c None",
". c #161F24",
"X c #192227",
"o c #2B363A",
"O c #2E393D",
"+ c #303B3F",
"@ c #323D42",
"# c #364145",
"$ c #37444A",
"% c #3B464A",
"& c #3E494D",
"* c #404B4F",
"= c #484D4D",
"- c #434D51",
"; c #465155",
": c #4A5356",
"> c #4B565A",
", c #4E595C",
"< c #50575A",
"1 c #515B5E",
"2 c #5E605F",
"3 c #4F5E61",
"4 c #545E62",
"5 c #566164",
"6 c #596265",
"7 c #566369",
"8 c #5B656A",
"9 c #5D696D",
"0 c #5E6C70",
"q c #616B6F",
"w c #636E72",
"e c #686E74",
"r c #667175",
"t c #697376",
"y c #67747B",
"u c #6B7579",
"i c #6E797D",
"p c #717B7F",
"a c #6F7B81",
"s c #737D82",
"d c #797B80",
"f c #768185",
"g c #798286",
"h c #76838A",
"j c #7B858A",
"k c #7E898D",
"l c #7E8B91",
"z c #808282",
"x c #818A8E",
"c c #838D92",
"v c #898F93",
"b c #869195",
"n c #899296",
"m c #8E9997",
"M c #8C959A",
"N c #8E999D",
"B c #909A9E",
"V c #8D9AA0",
"C c #949DA2",
"Z c #96A0A5",
"A c #99A2A6",
"S c #9BA5AA",
"D c #9EA8AD",
"F c #9EABB3",
"G c #A1AAAF",
"H c #A4ADB2",
"J c #A6B1B5",
"K c #A9B2B7",
"L c #ACB5BA",
"P c #AFB8BD",
"I c #B1BABF",
"U c #B4BDC2",
"Y c #B7C0C5",
"T c #B8C1C6",
"R c #BBC4C9",
"E c #BFC8CD",
"W c #C0C9CC",
"Q c #C5CFD3",
"! c #C9CED1",
"~ c #C6D1D4",
"^ c #CCD6DA",
"/ c #D1DBDE",
"( c #D3DDE2",
") c #D6E1E5",
"_ c #DCE5E9",
"` c #E0E7ED",
"' c #E2EBEF",
"] c #E4EDF2",
"[ c #E7F0F5",
"{ c #E8F1F6",
"} c #EBF4FA",
"| c #F9F9FB",
/* pixels */
"                                                                                                    ",
"                                                                 Dnkiw8577799wuxB                   ",
"                                                             xpw44444455664548899qix                ",
"                                   T_)^('{               bu9555680wewrrutuiiisssuur99i              ",
"                                  zMljhsfhbJE         kt9579wrisdssddjxvnMMNNCCZZCmlhu9i            ",
"                                    ay97560ypcC    Mfr9wrifgkvccvBVVCBCAZASSSSSCASDDSNkirv          ",
"                                     s4-;;,59wwuikituipgkMMNCCZCCCCCCSSSDGGDDSASZASSDJDZliz         ",
"                                      4$#%->55tsssfgknNZZZZSSDGGSSCSCSSGGGHDDSCAZZZAASDJDMhs        ",
"                                      t#O#&>rffglvvBCSGSSSGHHHGSACCCAASSSGGSZCmjhhxBCCSGGHMhd       ",
"                                       +o+5fhhkbnCCHHGHHHJHDDSCCBCCCCAAGSGCCBxtXT;9rdMCSSDHnsv      ",
"                                       O@ffgkMNZDHHHKHHHHDACCMMBMMMCCCASSCACbjp;X*rqwqicCSSNls      ",
"                                      :fhgcNZSDJKKKKKKHSZNMMnvnnMMNVCCACCCCBnbckxggpauewiMCCngg     ",
"                                      hgbMADJJKLUUKHHCCCnvvcccccnnMVCACCCBBNVVCCBNnvdjdsuusBMci     ",
"                                    vgkMAGKLLLPPKHHCCVBnvccxxccccnMCCCcNCNMBVZADGSCBCscxksaikvf     ",
"                                   sscCFLLPIPPPLHGCCVnvxclxxjxxxcvMCCsnMMMvMVZASGGSSCCCBBMxgsul     ",
"                                  hanZJUUIPLLLKGSCCVnvcxxljxjxxxvMBjwjcckgkxlmZAGGGGDSCB4MCMcgy     ",
"                                 iavSKUUUUKKKHGDCCBnncxclxcldxxxnN5jssfssishlbmZZDDDSAZNVV&MCNxf    ",
"                                upcSKUUUPPKHHGSCCCnncxldddssllclb=MCnprrrwtpfknMmVCVVNNZZCZN&CZNMn  ",
"                               ssnGKUUUPPKKGGSACBBMvcxxlssxldjxjtBGIHu9959wusjkbbbMnmNNBNVZCCN#gFJA ",
"                              ifMDUUUUUUKKHGGACCBMnxccdslsdsq4qdCGE(G86656rufjjkllklbbbbbmnNNCNmnMM ",
"                             igMHPUUUUUPKKHGDACBMnncxjdlsds8adVFJW[^876689riffjfffpug      shkkxkbc ",
"                            ikCHPTTTUPPKKKHGSAZBBMvccclcsswdMCSGY_^9097799riaiii              tttts ",
"                           ikCHUTTTTUPPKKJHGSSZCBMncjjdssadnCCSK/Tr098800rrr                        ",
"                          sgCHURTTTUUPLKKHGSAZCBMnnxxjdsaacCCCGUCrrr000w7rh                         ",
"                         sgBHIUUTTUPLHHHDSACCBNNMbbnncnn8dVMnMKsirr0&%:8fZJ                         ",
"                        sgMHUUUUPLHHDSSCCBBNMNMMMMMMMMn4snVlhCaa  ,#$,rkSJ                          ",
"                       gfMDLPLHHDSCCCCMMnMNNMNNMNMNMblwilsss      ;#;8sNFK                          ",
"                      xilAHJGSACMnncccncbbbnMnnbbkghfwsssa        $#>rlSK                           ",
"                      fkVSDCCnccxcxclkccccxkjgfsitr9wiiw         ,$;8hCJB                           ",
"                     gfMCZMckkkggjgjkkkggfsiuw955  ww<           &&5inJA                            ",
"                    ksbMMckgfsfffsffssiurwq9      2             ;&>tMKZ                             ",
"                    fknbjfssssssisiurw09q                      >%:rcm                               ",
"                   hfccgsssisiiutw0956                        =@;1                                  ",
"                   ijchiiipiiuw9885                                                                 ",
"                  ffkjuuiiuyw965                                                                    ",
"                 bfjktuuurw955                                                                      ",
"                 gfjittrr9831                                                                       ",
"                xshprrrw85,                                                                         ",
"                fssrww9841                                                                          ",
"               xiirqw984                                                                            ",
"               fiu9w951                                                                             ",
"               fi9w985                                                                              ",
"              xar9965                                                                               ",
"              kiw985                                                                                ",
"             nftw96                                                                                 ",
"             cir86                                                                                  ",
"             fr81                                                                                   ",
"            ku95                                                                                    ",
"            uq4                                                                                     ",
"           Bt4,                                                                                     ",
"         Q_Sw458                                                                                    ",
"        |]nr44997                                                                                   ",
"      !(dq4468ecn4                                                                                  ",
"    m)Mq444444uMLWt                                                                                 ",
"   S{Sq14>>444sNL^'                                                                                 ",
"   }Iu>-;;<<48sBL~]_                                                                                ",
"  ^Qc4-**;>,10sMJW)}                                                                                ",
" B)Zw;*&*-:>1wsnSLQ_/                                                                               ",
" DLf,&&%&-;>  igMSI~~                                                                               ",
" Fb6;           ukALTH                                                                              ",
" Zr               fNSF                                                                              ",
" n                 fcM                                                                              ",
" p                  fh                                                                              ",
"                     s                                                                              ",
"                                                                                                    "
};
