/* XPM */
static char *dolphin1704555023[] = {
/* columns rows colors chars-per-pixel */
"100 100 89 1 ",
"  c None",
". c #1C2226",
"X c #20282A",
"o c #242D31",
"O c #2A3236",
"+ c #2E363A",
"@ c #2F393D",
"# c #313A3D",
"$ c #343D41",
"% c #383F43",
"& c #374144",
"* c #394346",
"= c #3C4549",
"- c #3E484C",
"; c #40474A",
": c #414B4E",
"> c #444E51",
", c #465155",
"< c #4A5357",
"1 c #4B5559",
"2 c #4E595C",
"3 c #515A5E",
"4 c #535D61",
"5 c #555F68",
"6 c #566165",
"7 c #586266",
"8 c #576468",
"9 c #5B656A",
"0 c #5E696D",
"q c #5F6D70",
"w c #616B6E",
"e c #636E72",
"r c #667175",
"t c #687277",
"y c #667178",
"u c #6B757A",
"i c #6E797D",
"p c #70797E",
"a c #6E7B80",
"s c #737D82",
"d c #768185",
"f c #788287",
"g c #768388",
"h c #7B858A",
"j c #7E898E",
"k c #7F8B91",
"l c #808A8E",
"z c #828D92",
"x c #888D91",
"c c #869196",
"v c #889297",
"b c #869298",
"n c #8B959A",
"m c #8E999E",
"M c #909A9F",
"N c #8F9BA3",
"B c #939DA2",
"V c #96A1A6",
"C c #98A1A7",
"Z c #96A3A9",
"A c #9BA5AA",
"S c #9FA8AE",
"D c #9FA9B1",
"F c #A0AAAF",
"G c #A2ACB2",
"H c #A6B0B6",
"J c #A8B2B7",
"K c #A7B4B8",
"L c #AAB4BA",
"P c #AEB9BC",
"I c #B2BCC2",
"U c #B6C2C7",
"Y c #B7C2C8",
"T c #B8C2C8",
"R c #BDCACE",
"E c #BFCAD0",
"W c #C4CDD4",
"Q c #C6D1D7",
"! c #CCD0D3",
"~ c #C8D5D9",
"^ c #CEDBDE",
"/ c #D1DBDE",
"( c #D4DFE5",
") c #D4E0E3",
"_ c #DBE5EA",
"` c #DEE9EF",
"' c #E7E9EC",
"] c #E3EDF5",
"[ c #F0F4F4",
/* pixels */
"                                                                                                    ",
"                                                                                                    ",
"                                                                                                    ",
"                                                                                                    ",
"                                                                                                    ",
"                                                                                                    ",
"                                                                                                    ",
"                                                                                                    ",
"                                                                                                    ",
"                                                                                                    ",
"                                                                                                    ",
"                                                                                                    ",
"                                                                                                    ",
"                                                                                                    ",
"                                                                                                    ",
"                                                                                                    ",
"                                                                                                    ",
"                                                                                                    ",
"                                                                     eww000ee                       ",
"                                                               ww544311<1<1,14469r                  ",
"                                    ^)()_                  97331<<<<,1111112244436660               ",
"                                   ZANbbBAGI           w732<1233555w9wwyruuiiassiur0869             ",
"                                    yq5548qijn       0632369wetuaaassssljzzxccccbccjdt09r           ",
"                                     9,=*->140er  tw0669eupsdfjjlsjzxvvnmmmmnncccbbnnbhuww          ",
"                                      1$+#&-><49eeweetsshjlccbnbvxccccnnMMmNmbvxcbvnnnMnhtr         ",
"                                      ,+oO#&,60eerishzvxcnnmmmMnvxcccvnnnMMbvxlspflznnmMmcu0        ",
"                                       +Xo&2wrtushzvNmMMmBMBMmnclllxzcvnvnncls5<>1wtdlbnmmjue       ",
"                                       Oo:9ruidjcnBBBBBBBBnvlljjjjjllcvnvvxzst2O.&336wslbnbdre      ",
"                                      ==4rushzxmBZCCBBBNnxllffsfjhhlzzxvvzzlspt5>598636wszvji0      ",
"                                      8eushcNBBCAAAZBNnxlssspsssshhlzzvzzlzshfhfssptww978rflgt      ",
"                                     rusjbmZAAFFFCBBxzlsssppppspsshlzzhlllhlkzxnnxjfsuur099udiw     ",
"                                    euhcBAASSGFFBMmzllssappuuuppsshvsuslslsskxbnMmmxxfupdir0qut     ",
"                                  e0ujmAGGFGFFBBBvzlfsssuuuttuupshluwtssppisfkcnmmmnczjiuhgsrqw     ",
"                                 eetjBDHGGFBBBBMvzzsssstutttuuupsstwwetteertsgkcnmmmccljdtiljsre    ",
"                                w0ulBGKHGFFBBNnvxlshspuutttttupppwigtw55669wtaghkzcklkklkjirijjhf   ",
"                               e0ulBGGKGFFBBBNxxllsspputttwtttuw5smBx521<239ruidffhhhjjkllzhuwrgbn  ",
"                              e0ixZGLLGGFBBBmbxljsssuuttttet7<3wfMPWk12-,,49rtuiaasgffhhjjjjjhiiahj ",
"                             eeaxZGHLGGDFFBBnbzllssssuttwee57wpxNI_P61-1,269qrttrrruuia  piiisdddhd ",
"                            ersbAKLLLGFABBBmnvzllhssuuttew59slxxK)Y01,2-<2890q0w             0q00r  ",
"                           eefmAKLLLGGFAABBmMbzllsssautw955sxxxDQP0111-12286                        ",
"                          erdmFLLLLLGGAFZBBnvczjjfsiuure95shxxnIV942221116e                         ",
"                         eedmALLLLHGFZBBBnnxzjjjfgsssasu5tfhflBh984<-=-10jc                         ",
"                        resnALHGGDABBnnczzlljhhhhhfhdds9wssssla9  =+@*2ubZ                          ",
"                        ricCGAACBmbxzjjjhhhfhhhhhhhgdi09tutta     $O$<qjVV                          ",
"                       eujMCBmnzjffsfssssfddffddssire98ee0       ,@@-6anV                           ",
"                      etgcmbzjdsaapppsaaaspiiuteq9646997         =@#1rcAn                           ",
"                     rrslzjspuuttttttuuteeww8421,  221          ,@&-0jAm                            ",
"                     rihjsuteewreeeree0985332      *            &@=9jV                              ",
"                    euddueee00e0009874323                      =#-6pc                               ",
"                   rtuat00000007544211                        #+#>                                  ",
"                   rrit0990998622<,                                                                 ",
"                  teuu98997632<,,                                                                   ",
"                  eru06966321-:                                                                     ",
"                 rrt0644421,,                                                                       ",
"                 er063441<:                                                                         ",
"                re064231,:                                                                          ",
"                e964221>                                                                            ",
"               tw64111>                                                                             ",
"               r84211>                                                                              ",
"              it631<>                                                                               ",
"              ie411,                                                                                ",
"              i731,                                                                                 ",
"             ie31,                                                                                  ",
"             t91>                                                                                   ",
"            ie4>                                                                                    ",
"            w2>                                                                                     ",
"           Be>>3                                                                                    ",
"         ['B8>>,1                                                                                   ",
"        '!z5,>144,                                                                                  ",
"      IUs4,>:>3tzu                                                                                  ",
"     RB1>;;;:>4pBTB                                                                                 ",
"    _G3=%=%;:>7sBT'K                                                                                ",
"   (Ue=%#&&=:,9sBI)]                                                                                ",
"  P~h,###%**;19sbGW]/                                                                               ",
"  UZ8*###$&-; 9ilBKQ^                                                                               ",
" cKu,#+++#%*   0tzVKRH                                                                              ",
" zn2&            edmSZ                                                                              ",
" su                izb                                                                              ",
" r                  rg                                                                              ",
" w                   u                                                                              ",
"                                                                                                    ",
"                                                                                                    ",
"                                                                                                    ",
"                                                                                                    ",
"                                                                                                    ",
"                                                                                                    ",
"                                                                                                    ",
"                                                                                                    ",
"                                                                                                    ",
"                                                                                                    ",
"                                                                                                    ",
"                                                                                                    ",
"                                                                                                    ",
"                                                                                                    ",
"                                                                                                    ",
"                                                                                                    ",
"                                                                                                    ",
"                                                                                                    ",
"                                                                                                    ",
"                                                                                                    "
};
