/* XPM */
static char *_686eeb673ed49a3bc4bc06f73c372f3K4ER96YXWmhtuscX[] = {
/* columns rows colors chars-per-pixel */
"75 100 246 2 ",
"   c None",
".  c #2C1D1A",
"X  c #27201C",
"o  c #560E0A",
"O  c #662522",
"+  c #504E4C",
"@  c #8B0D04",
"#  c #880601",
"$  c #990C06",
"%  c #8A1205",
"&  c #9B150B",
"*  c #94150A",
"=  c #971D13",
"-  c #A60D07",
";  c #A8160B",
":  c #B41709",
">  c #A61C13",
",  c #B71D14",
"<  c #98241C",
"1  c #AB251A",
"2  c #AA241A",
"3  c #B6261A",
"4  c #BA220A",
"5  c #A82924",
"6  c #B52B23",
"7  c #B72A25",
"8  c #A8352A",
"9  c #BA3529",
"0  c #BB3A31",
"q  c #A03E37",
"w  c #CD1C0B",
"e  c #C71907",
"r  c #CF1B0F",
"t  c #E71D10",
"y  c #D3270C",
"u  c #C92815",
"i  c #DA2314",
"p  c #D72818",
"a  c #DB321F",
"s  c #C8250D",
"d  c #F52B0A",
"f  c #E32414",
"g  c #EC2A16",
"h  c #E72A19",
"j  c #F32A16",
"k  c #E9331D",
"l  c #F63619",
"z  c #FE310D",
"x  c #C52D22",
"c  c #D42D26",
"v  c #CA3829",
"b  c #DC3324",
"n  c #D73829",
"m  c #D63734",
"M  c #F62E22",
"N  c #EB3524",
"B  c #E33A2C",
"V  c #E63828",
"C  c #F43423",
"Z  c #F73828",
"A  c #E43B34",
"S  c #F23F34",
"D  c #E22E20",
"F  c #BB443A",
"G  c #DA442C",
"H  c #C6473C",
"J  c #D94738",
"K  c #EA452B",
"L  c #F3442A",
"P  c #E84938",
"I  c #F64738",
"U  c #EA533C",
"Y  c #F9543A",
"T  c #FF5026",
"R  c #F94618",
"E  c #D53C46",
"W  c #B74745",
"Q  c #B85752",
"!  c #AB514B",
"~  c #B8665A",
"^  c #AC635A",
"/  c #BA6B66",
"(  c #B1756E",
")  c #935A55",
"_  c #C74647",
"`  c #D64C49",
"'  c #C95546",
"]  c #D5574A",
"[  c #CA5855",
"{  c #D45954",
"}  c #E84943",
"|  c #F84C45",
" . c #E85648",
".. c #F45B4D",
"X. c #F85648",
"o. c #E85955",
"O. c #FA5C52",
"+. c #F75B54",
"@. c #C96758",
"#. c #D76758",
"$. c #D86954",
"%. c #F4614D",
"&. c #E86658",
"*. c #F56552",
"=. c #FC6B5C",
"-. c #F66758",
";. c #F7745D",
":. c #EB6C57",
">. c #DE5B60",
",. c #EC5D61",
"<. c #D46A66",
"1. c #C97366",
"2. c #DC7464",
"3. c #D6766B",
"4. c #C67875",
"5. c #DA7B76",
"6. c #C86B66",
"7. c #E96965",
"8. c #F16A64",
"9. c #F96966",
"0. c #E47364",
"q. c #E87869",
"w. c #FD7464",
"e. c #FA746C",
"r. c #FD7B6B",
"t. c #F57867",
"y. c #E77875",
"u. c #F27C74",
"i. c #F97977",
"p. c #CA887A",
"a. c #DB847B",
"s. c #D6867A",
"d. c #DF927F",
"f. c #EA836C",
"g. c #FD826D",
"h. c #F5856B",
"j. c #EB8379",
"k. c #ED8B7D",
"l. c #E68678",
"z. c #F38573",
"x. c #FB8473",
"c. c #FB8974",
"v. c #F4827B",
"b. c #FC847D",
"n. c #F38C7C",
"m. c #FA8B7B",
"M. c #F68D76",
"N. c #EA957D",
"B. c #F8927F",
"V. c #D67D80",
"C. c #C17580",
"Z. c #BD8B86",
"A. c #BC9397",
"S. c #C88783",
"D. c #D78A88",
"F. c #D9968C",
"G. c #D79896",
"H. c #C99590",
"J. c #E78984",
"K. c #F38B83",
"L. c #FB8D84",
"P. c #F78B88",
"I. c #EC9C8C",
"U. c #E89587",
"Y. c #F49383",
"T. c #FA9383",
"R. c #FB9A86",
"E. c #F4948C",
"W. c #F49B8C",
"Q. c #FC9C8D",
"!. c #FA978A",
"~. c #F38D94",
"^. c #E49594",
"/. c #EC9A93",
"(. c #E79B9A",
"). c #F59B94",
"_. c #FB9B93",
"`. c #FC9D9D",
"'. c #F69797",
"]. c #C8A596",
"[. c #D8A59D",
"{. c #FBA28D",
"}. c #F4A48D",
"|. c #EDA294",
" X c #EDA49C",
".X c #ECAB9C",
"XX c #E2A598",
"oX c #FCA495",
"OX c #F4A39C",
"+X c #F3AA9B",
"@X c #FDAB9B",
"#X c #F8A797",
"$X c #F9B19E",
"%X c #E8A993",
"&X c #D89FA1",
"*X c #F09CA4",
"=X c #DAABAA",
"-X c #D7B6AA",
";X c #DDBDB9",
":X c #CCB1AB",
">X c #EDACA4",
",X c #E4ABA6",
"<X c #FBA4A2",
"1X c #F5ACA4",
"2X c #FBADA3",
"3X c #F6AAA8",
"4X c #EEB2AC",
"5X c #EAB5A9",
"6X c #F4B3A4",
"7X c #FDB2A5",
"8X c #F4B3AC",
"9X c #FCBBAC",
"0X c #F6B8AA",
"qX c #EDBAB3",
"wX c #E7B9B6",
"eX c #FBB5B2",
"rX c #F3BBB2",
"tX c #F8BBB7",
"yX c #EEAEB1",
"uX c #DBC4B9",
"iX c #ECC4BA",
"pX c #F4C3B4",
"aX c #FCC2B4",
"sX c #F3C2BC",
"dX c #F3CBBD",
"fX c #FACBBC",
"gX c #FAC8B7",
"hX c #F5CDB9",
"jX c #DFBAC1",
"kX c #F3BEC0",
"lX c #DCD1CD",
"zX c #EBC9C4",
"xX c #F4CAC3",
"cX c #F8C9C6",
"vX c #ECD4CA",
"bX c #F4D3CB",
"nX c #FAD4CB",
"mX c #F8D6C9",
"MX c #EADAD8",
"NX c #FBDBD2",
"BX c #F9CAD2",
"VX c #F8E4D9",
"CX c #EFE4DE",
"ZX c #FAECE7",
"AX c #FCF8EF",
"SX c #F0EEE9",
/* pixels */
"                                                                                                                                                      ",
"                                                                                                                                                      ",
"                                                                                                                                                      ",
"                                                                                                                                                      ",
"                                                                                                                                                      ",
"                                                                                                        ,X^.oXoX.X7X  @X7X{.W.J.F.                    ",
"                                                                                                  iX2X@X2X6X5X,X  E.Y.N.U.W.      pXU.,X              ",
"                                                                                              OX2XaXrX                j.v.Y.      ].                  ",
"                                                                                          oX#XOXqX      sXtXeX7XE.!.f.q.Y.    }.6XsX                  ",
"                                                                                    0XU.2X1XtX8XtXtX8X/.v.z.P.K.P.I.I.).).  ^.W.                      ",
"                                                                                NXl.Q._.J.eXqXtX    OXOX#X|.,X5XqX          4XpX  wX                  ",
"                                                                              (.oX@XQ.`.      1X                        dXpX                          ",
"                                                                            U.T.n.OX      j.n.k.v.).          yXrXqX5X8X5X    wX                      ",
"                                                                      9XI.z.R.!.eX  4X).`.<X3X3XP.P.E.oX@X0XpXsXxX          kXzX                      ",
"                                                        hX          oXu.i.i.U.  rXtXE.E.0X    .X    |.E.).OX<X3X5X      vX      zX                    ",
"                                                      9X      J.@X-...b.t.Q.0XeX7.-...X.y.y.>.i.L.#.`.wX  0X6X XnXuX        ;X                        ",
"                                                              :.O.+.-.=.e.L.b.i...} 8.V.  1X`.<XP.e.7.b.y.K.+X7XaX>X0X                                ",
"                                                l.    N.p./. .....O.8.L.i.+.P +.o.u.y.5.E.@X .L.j.`.2X7.u.i.q.U..X  qX  rXcXiX                        ",
"                                                3.  z.5.  +...O. .u.7...A ,.y./.(.~.J.`.    v.8. .7.  ^.  G.`.7.x._ S.  H.rXcX                        ",
"                                              g.  D.  o.w.=.=.e._.k. .C.                3XJ.    ~.o.-.J.D.`.  ^._.i.m.8 p.                            ",
"                                            XXs.    ..*...9.e._.k.7.                          OX3X    { E.  F.  yX<X[ 0.).  ~                         ",
"                                            u.  ] X.8 e.b.] 7.o.[                                 >XqX    2X*X  ^.>X[ eX#.[ )                         ",
"                                      =X  a.2.*...6 o.e.@._ #.'.                                      1X  jXqX(.   X      W Q                         ",
"                                  bXwX;X  -.%.| 3 , 9.{ F `                                             3X    cXG.8X  2X  4.                          ",
"                                    kX  8.g.| P , +.` 8 8 V.                                              8XcX  H.G.F.  y.  ! E.                      ",
"                                       Xr.I  .3 } } H F 3                                                   ,XiXZ./ *X  6.6.S.{                       ",
"                                lX  ,Xt.O.O.6 : O.J H 0 c                                                     qX  D.S.    J.1.4.[                     ",
"                                    &.=.=.e.3 A I A ` 0                                                             /.        <.4.y.                  ",
"                                  P t.e.%.2 N B k b } _                                                             tX  F.F.~.  ~.q./.                ",
"                                K 8.L.w.7.} k M C 9.9.W                                                               D.4.D.(.^     y.                ",
"                              G N oXL.-.!., j h p 8.i.F                                                                 5.    b.  { 3.<.              ",
"                            3.T ;.0.L..._.x j 9.I O.u.o.^                                                                     Q   8X7.n.              ",
"                            L l U t.E.| W : M +.h M P V Q                                                                 G.D.  1X=X    K.            ",
"                            R w.Y '.8X..5 V C I S b V D Q                                                                 `.  D.<.  wX` P.            ",
"                            l r.w.W.9X-.> c Z | O. .9.B 8                                                                 G.          3XQ.P.          ",
"                            z V *.J k A 2 $ I I | | o.6 q                                                                               <.z.          ",
"                      iX    l K Y I Y l * $ V I | I - H ]     J.  D.                                                                      <X          ",
"                      ,X5X  l N j Z j j > > : | X.3 & < 8.  D.>XJ.  =X                                                      &XtX  &X        ^.        ",
"                        <.).d l Z L j I 0 , v x 6 3 = F &.zX  ,X  F.                                                            BX[.        (.        ",
"                        (.3Xa d l Y Z Z 1 9 > 9 1 1 & &.5.                                                                                            ",
"                        8X  a.: t L j j c 7 ; 7 6 1 2 & < =XzX                                                                ;X  zX                  ",
"                  >X      |.<Xo y u l l w 9 6 3 v 3 6 1 #                                                                         cX                  ",
"                            '.  g g b Z g v 6 > , 3 3 2 2                                                                           wX                ",
"                                a.d e u k m 6 1 ; u : 1 >                                                                                             ",
"                                ! l d - h ] 9 2 > ; ; & - f                                       3.                                                  ",
"                                %.y u | P n ' 5 # $ & @ - i X                               7 A G p Z G ~                                             ",
"                                A k v Y X.V 0 2 # * # & @ w .                             i J O.C k C h b ! +                                         ",
"                                  g - ; I C x 5 % @ # & - t                             v i Z | i N f h a v +                                         ",
"                                  [ g > M g a 7 % * @ @ 8 _                             m A k X.} i C g N G               A.uX                        ",
"                                  . j x e t f , > * & %                                   v I K r.s i j Z V !               xX=X                      ",
"                                    ! - ; Z M B & & - $                                   t.M k *.r.v h g C B ~       bXsX    ].G.                    ",
"                                      o   ; j b & > ; l.                                . : e g P x. .w j k N  .1.      XX  D.  :X                    ",
"              G.                            c j s > E                                     o t f k ;.*.y h p u h t.f.  ,XdX].].U.                      ",
"                I.                                                                          7.} f =.*.n c h J u B ;.z.  xX-X[.                        ",
"                  Y.                                                                          ~ V ;...n   h 4 J 2 n =.    mXMXMX                      ",
"                pX  T.                                                                          G t...G B u w -.n ; v 4.                              ",
"                  xX  I.                                                                         ... .v P v u b &.K v =                               ",
"                      |.F.                                                                    Z.o.%.u K K J u e P v K S                               ",
"                    A.  }.                                                            =X    iX X&.U G I  .P s i u L.J #.                              ",
"                        8X.X                                                              0XwX    3 *. .x.Y s s f l.t.Q.@.                            ",
"                      5XxX9X                                                        =XtX  H.      +.U *.z.X.u w f #XoX3./                             ",
"                        wX6XXX                                                              wX    ..%.t.0XX.b e i m.OX_.rX                            ",
"                      qX  +XoX                                                          [.S.    s.h.q.nXNX%.X.w a Y oXL.5X                            ",
"                            {.rX                                                                l.D.SXVXbX&.=.i i h oXT.XX                            ",
"                    uX  -X  }.                                                                  F.AXCXVXnX0.=.w u p @X2X{                             ",
"                      fX    4X>X                                                                F.( CXVXnXq.r.e a U {.#X<.                            ",
"                    E.        @X                                                                6XqXAXZXbXv.Q.i b P R.}.                              ",
"                      R.0XvX  pX                                                                +XNXAXAXVX#XoXe b X.k.oX                              ",
"                        R.5X    /.                                                              %XZXCXCXNX2XW.i B  .!.W.                              ",
"                        n.{..X  sXG.                                                            p.nXSXVXpXE.H V V J R.^.                              ",
"                          n.U.    2X                                                            /.qXsXE.@Xq.H O.P 7.M.                                ",
"                          3.  $.    %X                                                          1.s.aX$Xt.g.J O.&.c.z.                                ",
"                            m.  @.E.  5X                                                          <..XU.t.0.J ..r.r.d.                                ",
"                          dX  &.    2.  F.                                                      ~ 2.2X@X:. .P *.t.t.                                  ",
"                                $.@.  @.                                                      -X/ s.oXx.;.J g.g.m.s.                                  ",
"                                  u.{     (.                                              G.G.  1.2XY.t.U  .c.u.t.                                    ",
"                                   X'   U.  D.                                          :X4X[.  2.D.n.-.v m.:.x.                                      ",
"                                    #X  6.                                                  8XZ.@.l.x.P w.z.h.                                        ",
"                                    +Xc.Y.    aX>X                                        -X  8X#.{.w.&.m.h.Y.                                        ",
"                                      Q.z.0.    7Xs.                                        G.|.3.0.r.c.c.  ( F.                                      ",
"                                          n.;.    a.I.D.                                    aXj.R.0.x.-.5.  q.5.                                      ",
"                                            L.;.z.  a.@X2.                                6Xn.d.&.n.&.  D.  ^ J.                                      ",
"                                              y.:.&.N.  s.Q.#.7X                      +XM.] u.u.k.u.        Z.                                        ",
"                                                l.' r.:.#.oX@.0.] q.U.I.Q.#X}.{.Y.B.m.$.m.f.R.<Xm.  (.                                                ",
"                                                    j.#.] x.' c.x.$.$.$.K.Q.T.T.T.T.T.B.Q.N.OX).                                                      ",
"                            lX                        /.1.2.m.x.m.m.c.c.c.h.z.z.n._.|.0XmXbX                                                          ",
"                                bXzX                    iX0X+XI.Q.{.R.Q.E.E.E.0XfXNXmXNX                                                              ",
"                                      rXmX                      fX0X7X6X9XfXfXfXxXvX                                                                  ",
"                                            nXgXmX  vXVXvXVXNXmXbXfXgXgXfXxX                                                                          ",
"                                                        dXdXcXxXbX                                                                                    ",
"                                                                                                                                                      ",
"                                                                                                                                                      ",
"                                                                                                                                                      ",
"                                                                                                                                                      ",
"                                                                                                                                                      ",
"                                                                                                                                                      ",
"                                                                                                                                                      ",
"                                                                                                                                                      ",
"                                                                                                                                                      ",
"                                                                                                                                                      "
};
